<svg width="126" height="16" viewBox="0 0 126 16" fill="none" xmlns="http://www.w3.org/2000/svg">
<path d="M0.288274 1.45221C0.0385229 1.3344 -0.0684367 1.03644 0.0493729 0.786687C0.167183 0.536936 0.465149 0.429976 0.7149 0.547786L0.288274 1.45221ZM126 1L122.686 5.72739L120.249 0.493363L126 1ZM0.7149 0.547786C1.15727 0.756458 1.60086 0.962984 2.04564 1.16735L1.62813 2.07602C1.1803 1.87026 0.733677 1.66231 0.288274 1.45221L0.7149 0.547786ZM4.72581 2.36633C5.62243 2.75666 6.52371 3.1383 7.42954 3.51113L7.04893 4.43586C6.13689 4.06047 5.22943 3.67622 4.32666 3.28322L4.72581 2.36633ZM10.1558 4.60126C11.0673 4.95513 11.9832 5.30015 12.9034 5.63622L12.5604 6.57553C11.6338 6.23716 10.7116 5.88977 9.7939 5.53348L10.1558 4.60126ZM15.6714 6.61563C16.5963 6.93242 17.5253 7.24023 18.4584 7.53896L18.1535 8.49134C17.214 8.19056 16.2786 7.88064 15.3474 7.56167L15.6714 6.61563ZM21.2638 8.40599C22.2005 8.68519 23.1412 8.95528 24.0857 9.21617L23.8194 10.1801C22.8685 9.91739 21.9213 9.64545 20.9782 9.36433L21.2638 8.40599ZM26.9238 9.96943C27.8709 10.2106 28.8216 10.4425 29.776 10.6652L29.5488 11.639C28.5879 11.4149 27.6306 11.1813 26.6771 10.9385L26.9238 9.96943ZM32.6423 11.3035C33.5981 11.5063 34.5574 11.6998 35.52 11.8839L35.3322 12.8661C34.363 12.6807 33.3972 12.4859 32.4348 12.2818L32.6423 11.3035ZM38.4096 12.4064C39.3728 12.5706 40.3391 12.7254 41.3085 12.8708L41.1603 13.8597C40.1842 13.7134 39.2113 13.5575 38.2416 13.3922L38.4096 12.4064ZM44.2166 13.277C45.1855 13.4025 46.1573 13.5185 47.1321 13.625L47.0235 14.6191C46.0421 14.5119 45.0636 14.395 44.0881 14.2687L44.2166 13.277ZM50.0538 13.9147C51.027 14.0014 52.0028 14.0787 52.9814 14.1463L52.9124 15.1439C51.9273 15.0758 50.9448 14.9981 49.965 14.9108L50.0538 13.9147ZM55.912 14.3197C56.8876 14.3678 57.8659 14.4063 58.8465 14.4352L58.817 15.4347C57.8298 15.4056 56.845 15.3669 55.8628 15.3185L55.912 14.3197ZM61.7819 14.4928C62.271 14.4976 62.7606 14.5 63.2508 14.5V15.5C62.7573 15.5 62.2644 15.4976 61.7721 15.4928L61.7819 14.4928ZM63.2508 14.5C63.741 14.5 64.2306 14.4976 64.7197 14.4928L64.7295 15.4928C64.2372 15.4976 63.7443 15.5 63.2508 15.5V14.5ZM67.6551 14.4352C68.6357 14.4063 69.6139 14.3678 70.5896 14.3197L70.6388 15.3185C69.6566 15.3669 68.6718 15.4057 67.6846 15.4347L67.6551 14.4352ZM73.5202 14.1463C74.4988 14.0787 75.4746 14.0014 76.4478 13.9147L76.5366 14.9108C75.5568 14.9981 74.5743 15.0758 73.5892 15.1439L73.5202 14.1463ZM79.3695 13.625C80.3443 13.5185 81.3161 13.4025 82.285 13.277L82.4135 14.2687C81.438 14.395 80.4595 14.5119 79.4781 14.6191L79.3695 13.625ZM85.1931 12.8708C86.1625 12.7254 87.1289 12.5706 88.092 12.4064L88.2601 13.3922C87.2903 13.5575 86.3174 13.7134 85.3413 13.8597L85.1931 12.8708ZM90.9816 11.8839C91.9442 11.6998 92.9035 11.5063 93.8593 11.3035L94.0668 12.2817C93.1045 12.4859 92.1386 12.6807 91.1694 12.8661L90.9816 11.8839ZM96.7256 10.6652C97.68 10.4425 98.6307 10.2106 99.5778 9.96943L99.8245 10.9385C98.871 11.1813 97.9137 11.4149 96.9528 11.639L96.7256 10.6652ZM102.416 9.21617C103.36 8.95528 104.301 8.68519 105.238 8.40599L105.523 9.36433C104.58 9.64544 103.633 9.91739 102.682 10.1801L102.416 9.21617ZM108.043 7.53896C108.976 7.24023 109.905 6.93242 110.83 6.61563L111.154 7.56167C110.223 7.88064 109.288 8.19056 108.348 8.49134L108.043 7.53896ZM113.598 5.63622C114.518 5.30015 115.434 4.95513 116.346 4.60127L116.708 5.53348C115.79 5.88977 114.868 6.23716 113.941 6.57554L113.598 5.63622ZM119.072 3.51113C119.978 3.1383 120.879 2.75667 121.776 2.36634L122.175 3.28323C121.272 3.67623 120.365 4.06048 119.453 4.43587L119.072 3.51113ZM0.288274 1.45221C0.0385229 1.3344 -0.0684367 1.03644 0.0493729 0.786687C0.167183 0.536936 0.465149 0.429976 0.7149 0.547786L0.288274 1.45221ZM126 1L122.686 5.72739L120.249 0.493363L126 1ZM0.7149 0.547786C1.15727 0.756458 1.60086 0.962984 2.04564 1.16735L1.62813 2.07602C1.1803 1.87026 0.733677 1.66231 0.288274 1.45221L0.7149 0.547786ZM4.72581 2.36633C5.62243 2.75666 6.52371 3.1383 7.42954 3.51113L7.04893 4.43586C6.13689 4.06047 5.22943 3.67622 4.32666 3.28322L4.72581 2.36633ZM10.1558 4.60126C11.0673 4.95513 11.9832 5.30015 12.9034 5.63622L12.5604 6.57553C11.6338 6.23716 10.7116 5.88977 9.7939 5.53348L10.1558 4.60126ZM15.6714 6.61563C16.5963 6.93242 17.5253 7.24023 18.4584 7.53896L18.1535 8.49134C17.214 8.19056 16.2786 7.88064 15.3474 7.56167L15.6714 6.61563ZM21.2638 8.40599C22.2005 8.68519 23.1412 8.95528 24.0857 9.21617L23.8194 10.1801C22.8685 9.91739 21.9213 9.64545 20.9782 9.36433L21.2638 8.40599ZM26.9238 9.96943C27.8709 10.2106 28.8216 10.4425 29.776 10.6652L29.5488 11.639C28.5879 11.4149 27.6306 11.1813 26.6771 10.9385L26.9238 9.96943ZM32.6423 11.3035C33.5981 11.5063 34.5574 11.6998 35.52 11.8839L35.3322 12.8661C34.363 12.6807 33.3972 12.4859 32.4348 12.2818L32.6423 11.3035ZM38.4096 12.4064C39.3728 12.5706 40.3391 12.7254 41.3085 12.8708L41.1603 13.8597C40.1842 13.7134 39.2113 13.5575 38.2416 13.3922L38.4096 12.4064ZM44.2166 13.277C45.1855 13.4025 46.1573 13.5185 47.1321 13.625L47.0235 14.6191C46.0421 14.5119 45.0636 14.395 44.0881 14.2687L44.2166 13.277ZM50.0538 13.9147C51.027 14.0014 52.0028 14.0787 52.9814 14.1463L52.9124 15.1439C51.9273 15.0758 50.9448 14.9981 49.965 14.9108L50.0538 13.9147ZM55.912 14.3197C56.8876 14.3678 57.8659 14.4063 58.8465 14.4352L58.817 15.4347C57.8298 15.4056 56.845 15.3669 55.8628 15.3185L55.912 14.3197ZM61.7819 14.4928C62.271 14.4976 62.7606 14.5 63.2508 14.5V15.5C62.7573 15.5 62.2644 15.4976 61.7721 15.4928L61.7819 14.4928ZM63.2508 14.5C63.741 14.5 64.2306 14.4976 64.7197 14.4928L64.7295 15.4928C64.2372 15.4976 63.7443 15.5 63.2508 15.5V14.5ZM67.6551 14.4352C68.6357 14.4063 69.6139 14.3678 70.5896 14.3197L70.6388 15.3185C69.6566 15.3669 68.6718 15.4057 67.6846 15.4347L67.6551 14.4352ZM73.5202 14.1463C74.4988 14.0787 75.4746 14.0014 76.4478 13.9147L76.5366 14.9108C75.5568 14.9981 74.5743 15.0758 73.5892 15.1439L73.5202 14.1463ZM79.3695 13.625C80.3443 13.5185 81.3161 13.4025 82.285 13.277L82.4135 14.2687C81.438 14.395 80.4595 14.5119 79.4781 14.6191L79.3695 13.625ZM85.1931 12.8708C86.1625 12.7254 87.1289 12.5706 88.092 12.4064L88.2601 13.3922C87.2903 13.5575 86.3174 13.7134 85.3413 13.8597L85.1931 12.8708ZM90.9816 11.8839C91.9442 11.6998 92.9035 11.5063 93.8593 11.3035L94.0668 12.2817C93.1045 12.4859 92.1386 12.6807 91.1694 12.8661L90.9816 11.8839ZM96.7256 10.6652C97.68 10.4425 98.6307 10.2106 99.5778 9.96943L99.8245 10.9385C98.871 11.1813 97.9137 11.4149 96.9528 11.639L96.7256 10.6652ZM102.416 9.21617C103.36 8.95528 104.301 8.68519 105.238 8.40599L105.523 9.36433C104.58 9.64544 103.633 9.91739 102.682 10.1801L102.416 9.21617ZM108.043 7.53896C108.976 7.24023 109.905 6.93242 110.83 6.61563L111.154 7.56167C110.223 7.88064 109.288 8.19056 108.348 8.49134L108.043 7.53896ZM113.598 5.63622C114.518 5.30015 115.434 4.95513 116.346 4.60127L116.708 5.53348C115.79 5.88977 114.868 6.23716 113.941 6.57554L113.598 5.63622ZM119.072 3.51113C119.978 3.1383 120.879 2.75667 121.776 2.36634L122.175 3.28323C121.272 3.67623 120.365 4.06048 119.453 4.43587L119.072 3.51113Z" fill="white"/>
</svg>
