<svg width="20" height="20" viewBox="0 0 20 20" fill="none" xmlns="http://www.w3.org/2000/svg">
<path d="M17.0002 0.00012207H3C1 0.00012207 0 1.00012 0 3.00012L0.000590086 17.0001C0.000590086 19.0001 1.00021 20.0001 3.00021 20.0001H17.0002C19.0002 20.0001 20.0002 19.0001 20.0002 17.0001V3.00012C20.0002 1.00012 19.0002 0.00012207 17.0002 0.00012207ZM6.66687 15.8335H4.16687V6.66679H6.66687V15.8335ZM5.41687 5.61012C4.61187 5.61012 3.95854 4.95179 3.95854 4.14012C3.95854 3.32845 4.61187 2.67012 5.41687 2.67012C6.22187 2.67012 6.87521 3.32845 6.87521 4.14012C6.87521 4.95179 6.22271 5.61012 5.41687 5.61012ZM16.6669 15.8335H14.1669V11.1635C14.1669 8.3568 10.8335 8.5693 10.8335 11.1635V15.8335H8.3335V6.66679H10.8335V8.1376C11.9969 5.98262 16.6669 5.82346 16.6669 10.201V15.8335Z" fill="white"/>
</svg>
