<svg width="22" height="16" viewBox="0 0 22 16" fill="none" xmlns="http://www.w3.org/2000/svg">
<path d="M21.9991 5.70998C22.0485 4.27864 21.7355 2.858 21.0891 1.57998C20.6505 1.05558 20.0418 0.701693 19.3691 0.579983C16.5866 0.327513 13.7926 0.224033 10.9991 0.269983C8.2157 0.221943 5.43176 0.322084 2.65905 0.569984C2.11087 0.669704 1.60357 0.926834 1.19905 1.30998C0.29905 2.13998 0.19905 3.55998 0.0990504 4.75998C-0.0460376 6.9175 -0.0460376 9.0824 0.0990504 11.24C0.12798 11.9154 0.22854 12.5858 0.39905 13.24C0.51963 13.745 0.76357 14.2123 1.10905 14.6C1.51632 15.0034 2.03543 15.2752 2.59905 15.38C4.75497 15.6461 6.92727 15.7564 9.0991 15.71C12.5991 15.76 15.669 15.71 19.299 15.43C19.8765 15.3316 20.4102 15.0595 20.8291 14.65C21.109 14.3699 21.3181 14.0271 21.4391 13.65C21.7967 12.5526 21.9723 11.4041 21.959 10.25C21.9991 9.69 21.9991 6.31 21.9991 5.70998ZM8.73905 10.85V4.65998L14.659 7.77C12.9991 8.69 10.809 9.73 8.73905 10.85Z" fill="white"/>
</svg>
